Coordinates
version=1
nRows=13
nColumns=40
inDegrees=yes

Units are S.I. units (second, meters, Newtons, ...)
Angles are in degrees.

endheader
time	pelvis_tilt	pelvis_list	pelvis_rotation	pelvis_tx	pelvis_ty	pelvis_tz	hip_flexion_r	hip_adduction_r	hip_rotation_r	knee_angle_r	knee_angle_r_beta	ankle_angle_r	subtalar_angle_r	mtp_angle_r	hip_flexion_l	hip_adduction_l	hip_rotation_l	knee_angle_l	knee_angle_l_beta	ankle_angle_l	subtalar_angle_l	mtp_angle_l	lumbar_extension	lumbar_bending	lumbar_rotation	arm_flex_r	arm_add_r	arm_rot_r	elbow_flex_r	pro_sup_r	wrist_flex_r	wrist_dev_r	arm_flex_l	arm_add_l	arm_rot_l	elbow_flex_l	pro_sup_l	wrist_flex_l	wrist_dev_l
      7.32000000	     -5.94052712	     -5.52052905	     -1.34773610	      0.99026152	      0.91687474	      0.48442201	      4.23195076	     -1.27532976	    -11.70869540	     31.87618968	     31.87618968	     16.49878810	      1.81604649	     -7.34269665	     30.11044311	     -7.69772048	     -2.83391141	     26.62906383	     26.62906383	      5.11283192	    -15.24209796	      2.99612348	     -9.72596888	      4.48008326	      3.14461001	     48.16742983	    -15.75691635	      1.88070879	    109.39632998	     44.30466162	      0.00000000	      0.00000000	    -15.95039532	     -5.62988556	     10.48122538	     26.77861669	     43.98956376	      0.00000000	      0.00000000
      7.33142857	     -5.97953404	     -5.34352555	     -1.58627755	      0.98972241	      0.91813872	      0.48210695	      6.13698344	     -2.08633502	    -11.27615616	     35.87887915	     35.87887915	     14.65637275	      0.06995043	     -8.39733480	     29.44289900	     -7.47844399	     -3.25533280	     26.47741848	     26.47741848	      5.76027717	    -15.10186909	      2.85469597	     -9.83331023	      4.33144187	      3.08308168	     46.28930003	    -15.93006058	      1.71850970	    109.26292730	     44.31257131	      0.00000000	      0.00000000	    -15.04449066	     -5.81351971	     10.42194642	     26.92269082	     44.02903552	      0.00000000	      0.00000000
      7.34285714	     -6.07872443	     -5.31700616	     -1.81116316	      0.98902790	      0.91930346	      0.48015077	      8.07271426	     -2.48916417	    -10.52631414	     39.38737391	     39.38737391	     10.41154737	     -3.66246995	    -14.80033373	     28.82769166	     -7.43250474	     -3.63521344	     26.26339913	     26.26339913	      6.40137150	    -14.80660885	      2.74126807	     -9.91097091	      4.30680823	      3.92687703	     43.50716891	    -16.72946378	     -0.00778659	    110.28504747	     44.39048323	      0.00000000	      0.00000000	    -13.42631130	     -6.02353287	     10.16557599	     26.44264202	     44.25965489	      0.00000000	      0.00000000
      7.35428571	     -6.01629941	     -5.07723473	     -2.02546204	      0.98822485	      0.92046416	      0.47814584	     10.25221080	     -3.33661439	    -10.11126921	     43.78127597	     43.78127597	      8.27434210	     -5.50158981	    -14.69154701	     28.00463888	     -7.16715007	     -4.17370885	     25.98035140	     25.98035140	      6.88340708	    -14.52564691	      2.44212929	    -10.13919390	      4.07170114	      3.59101463	     41.56773623	    -16.56912355	      0.24151562	    109.54810949	     44.40108187	      0.00000000	      0.00000000	    -12.50359194	     -6.30841938	     10.06160176	     26.82981077	     44.30072916	      0.00000000	      0.00000000
      7.36571429	     -6.06526702	     -4.91693297	     -2.22431156	      0.98725710	      0.92138124	      0.47637247	     12.67032357	     -3.92352370	     -9.49911788	     48.12124048	     48.12124048	      5.94463804	     -7.84505571	    -14.16737101	     27.30215056	     -6.98985736	     -4.69568319	     25.64948552	     25.64948552	      7.29563994	    -14.20836843	      2.06875981	    -10.20923062	      3.94585568	      3.32127122	     39.47426756	    -16.53107998	      0.28018860	    108.59937145	     44.42482195	      0.00000000	      0.00000000	    -11.57006744	     -6.69204188	      9.87657808	     27.32405887	     44.35481341	      0.00000000	      0.00000000
      7.37714286	     -6.08246372	     -4.81459097	     -2.40922176	      0.98620200	      0.92218208	      0.47479799	     15.11649119	     -4.32897921	     -8.84500429	     52.32033948	     52.32033948	      3.59791349	    -10.28753080	    -13.20685613	     26.58573345	     -6.86971491	     -5.14240475	     25.32890997	     25.32890997	      7.73434744	    -13.86836500	      1.58176810	    -10.32888278	      3.84503272	      3.09769031	     37.26370564	    -16.47801773	      0.16949199	    107.45000178	     44.45956453	      0.00000000	      0.00000000	    -10.54405763	     -7.11982139	      9.61957869	     27.94508112	     44.42190560	      0.00000000	      0.00000000
      7.38857143	     -6.02598661	     -4.68729284	     -2.51095121	      0.98506783	      0.92299347	      0.47323694	     17.51184743	     -4.69868225	     -8.22657219	     56.32167470	     56.32167470	      1.42923263	    -12.46031767	    -11.95554831	     25.84488994	     -6.70021145	     -5.55112652	     25.06388049	     25.06388049	      8.04163097	    -13.50478294	      1.10440091	    -10.51508448	      3.75818305	      2.86295603	     34.95787969	    -16.34813609	      0.02550459	    106.14411577	     44.49951796	      0.00000000	      0.00000000	     -9.41314707	     -7.60764117	      9.32087397	     28.63033710	     44.49549674	      0.00000000	      0.00000000
      7.40000000	     -5.96124382	     -4.70675071	     -2.60032420	      0.98389285	      0.92373926	      0.47189240	     20.05935631	     -4.80590958	     -7.62390838	     60.45094169	     60.45094169	      1.47964523	    -13.16479922	     -4.88232201	     25.04867032	     -6.68945794	     -5.89632244	     24.64283281	     24.64283281	      7.73079604	    -13.37741854	     -1.07488335	    -10.72027883	      3.78023826	      2.69771009	     32.64118549	    -15.76171655	     -1.32819332	    104.15684774	     44.63803009	      0.00000000	      0.00000000	     -8.51819270	     -7.98593311	      7.48269948	     30.32988606	     44.89982261	      0.00000000	      0.00000000
      7.41142857	     -5.80031757	     -4.56611430	     -2.60321871	      0.98276923	      0.92460539	      0.47033342	     22.23985347	     -5.18472352	     -7.25076016	     63.74735048	     63.74735048	     -0.21843457	    -14.47954221	     -4.32910487	     24.23467527	     -6.43309269	     -6.10221439	     24.41041664	     24.41041664	      8.10342929	    -13.17633902	     -1.24864148	    -11.03835515	      3.71345232	      2.26562589	     30.31121473	    -15.58834283	     -1.06903250	    102.83932112	     44.66368179	      0.00000000	      0.00000000	     -7.14741307	     -8.51567511	      7.27762045	     30.82244807	     44.95669340	      0.00000000	      0.00000000
      7.42285714	     -5.72959671	     -4.54906125	     -2.65614543	      0.98149742	      0.92536012	      0.46893989	     24.53973586	     -5.26015039	     -6.78158910	     66.75855549	     66.75855549	     -1.06994650	    -15.51882787	     -2.27931740	     23.51160786	     -6.32220834	     -6.27201975	     24.14803009	     24.14803009	      8.44514885	    -12.97197074	     -1.63581631	    -11.18225926	      3.76447503	      2.27239516	     28.00301045	    -15.41273173	     -2.02180342	     99.77681567	     44.79145172	      0.00000000	      0.00000000	     -5.67591505	     -8.97569577	      6.71612149	     31.61672701	     45.08947858	      0.00000000	      0.00000000
      7.43428571	     -5.69337626	     -4.42615759	     -2.66108284	      0.98024533	      0.92610042	      0.46751050	     26.77819062	     -5.47700488	     -6.40544439	     69.30877990	     69.30877990	     -1.86178393	    -16.24769020	     -1.55073942	     22.79429730	     -6.06408206	     -6.38548852	     23.80208097	     23.80208097	      8.76911922	    -12.79970118	     -1.77255185	    -11.36332395	      3.74388558	      1.98314607	     25.62299362	    -15.26643567	     -2.06023731	     97.90059958	     44.84522770	      0.00000000	      0.00000000	     -4.22581862	     -9.49620189	      6.42042290	     32.28633752	     45.16260576	      0.00000000	      0.00000000
      7.44571429	     -5.53668948	     -4.41594466	     -2.63028632	      0.97905083	      0.92701136	      0.46615179	     28.82134082	     -5.54627002	     -6.10371207	     71.47392209	     71.47392209	     -1.84913567	    -16.42133539	      0.41288991	     21.96848286	     -5.88786686	     -6.32044717	     23.48976395	     23.48976395	      9.03371006	    -12.87300121	     -2.02896715	    -11.61028222	      3.84967851	      1.71128765	     23.50303810	    -14.50344141	     -3.27304304	     94.47180249	     44.99314561	      0.00000000	      0.00000000	     -2.68842484	    -10.01593814	      5.80379949	     33.09750776	     45.30935772	      0.00000000	      0.00000000
      7.45714286	     -5.43467517	     -4.39672299	     -2.62905101	      0.97783627	      0.92785801	      0.46487243	     30.78969194	     -5.59684527	     -5.84063247	     73.07952823	     73.07952823	     -2.07996946	    -16.66700602	      0.63444115	     21.18994178	     -5.72658548	     -6.32184943	     23.16426924	     23.16426924	      9.37251857	    -12.80064929	     -2.11272609	    -11.85707654	      3.97560394	      1.74295438	     21.07362838	    -14.66234228	     -3.41659527	     92.01011539	     45.06813806	      0.00000000	      0.00000000	     -0.97486526	    -10.51641102	      5.48555673	     33.95494090	     45.38963345	      0.00000000	      0.00000000
